HIERARCHY
ROOT joint_Root
{
	OFFSET 0.0 0.0 0.0
	CHANNELS 6 Xposition Yposition Zposition Zrotation Xrotation Yrotation 
	JOINT Hips
	{
		OFFSET -0.726466 93.3139 -2.00062
		CHANNELS 6 Xposition Yposition Zposition Zrotation Xrotation Yrotation 
		JOINT Spine
		{
			OFFSET 15.7357 0.0 0.0
			CHANNELS 6 Xposition Yposition Zposition Zrotation Xrotation Yrotation 
			JOINT Chest
			{
				OFFSET 8.98455 -0.406207 0.0
				CHANNELS 6 Xposition Yposition Zposition Zrotation Xrotation Yrotation 
				JOINT Neck
				{
					OFFSET 16.3773 0.0 0.0
					CHANNELS 6 Xposition Yposition Zposition Zrotation Xrotation Yrotation 
					JOINT Head
					{
						OFFSET 6.45672 0.0 0.0
						CHANNELS 6 Xposition Yposition Zposition Zrotation Xrotation Yrotation 
						End Site
						{
							OFFSET 0.0 0.0 0.0
						}
					}
				}
				JOINT Shoulder_L
				{
					OFFSET 12.9942 -0.242716 4.98039
					CHANNELS 6 Xposition Yposition Zposition Zrotation Xrotation Yrotation 
					JOINT UpperArm_L
					{
						OFFSET 5.34809 0.0 0.0
						CHANNELS 6 Xposition Yposition Zposition Zrotation Xrotation Yrotation 
						JOINT LowerArm_L
						{
							OFFSET 24.3286 1.87007e-05 0.0
							CHANNELS 6 Xposition Yposition Zposition Zrotation Xrotation Yrotation 
							JOINT Hand_L
							{
								OFFSET 22.2916 0.0 0.0
								CHANNELS 6 Xposition Yposition Zposition Zrotation Xrotation Yrotation 
								End Site
								{
									OFFSET 0.0 0.0 0.0
								}
							}
						}
					}
				}
				JOINT Shoulder_R
				{
					OFFSET 12.9945 -0.242716 -4.98039
					CHANNELS 6 Xposition Yposition Zposition Zrotation Xrotation Yrotation 
					JOINT UpperArm_R
					{
						OFFSET -5.34813 0.0 0.0
						CHANNELS 6 Xposition Yposition Zposition Zrotation Xrotation Yrotation 
						JOINT LowerArm_R
						{
							OFFSET -24.3289 0.000322201 0.0
							CHANNELS 6 Xposition Yposition Zposition Zrotation Xrotation Yrotation 
							JOINT Hand_R
							{
								OFFSET -22.2915 -0.000108084 0.0
								CHANNELS 6 Xposition Yposition Zposition Zrotation Xrotation Yrotation 
								End Site
								{
									OFFSET 0.0 0.0 0.0
								}
							}
						}
					}
				}
			}
		}
		JOINT UpperLeg_L
		{
			OFFSET -2.19248 -6.46944 0.0
			CHANNELS 6 Xposition Yposition Zposition Zrotation Xrotation Yrotation 
			JOINT LowerLeg_L
			{
				OFFSET 39.0811 0.0 -1.23785e-05
				CHANNELS 6 Xposition Yposition Zposition Zrotation Xrotation Yrotation 
				JOINT Foot_L
				{
					OFFSET 40.9854 0.0 -1.26872e-05
					CHANNELS 6 Xposition Yposition Zposition Zrotation Xrotation Yrotation 
					JOINT Toes_L
					{
						OFFSET 11.7543 0.0 0.0
						CHANNELS 6 Xposition Yposition Zposition Zrotation Xrotation Yrotation 
						End Site
						{
							OFFSET 0.0 0.0 0.0
						}
					}
				}
			}
		}
		JOINT UpperLeg_R
		{
			OFFSET -2.19251 6.46944 0.0
			CHANNELS 6 Xposition Yposition Zposition Zrotation Xrotation Yrotation 
			JOINT LowerLeg_R
			{
				OFFSET -39.0811 -0.00228153 -0.0401928
				CHANNELS 6 Xposition Yposition Zposition Zrotation Xrotation Yrotation 
				JOINT Foot_R
				{
					OFFSET -40.9854 0.0 0.0
					CHANNELS 6 Xposition Yposition Zposition Zrotation Xrotation Yrotation 
					JOINT Toes_R
					{
						OFFSET -11.7543 0.0 0.0
						CHANNELS 6 Xposition Yposition Zposition Zrotation Xrotation Yrotation 
						End Site
						{
							OFFSET 0.0 0.0 0.0
						}
					}
				}
			}
		}
	}
}
MOTION
Frames:	4
Frame Time:	0.0333333
0.000000 0.000000 0.000000 0.000000 0.000000 -0.000000 0.019693 92.252300 -0.984297 87.890800 -1.774320 4.799560 15.735700 0.000005 -0.000001 82.929000 86.266800 -82.594800 8.984550 -0.406207 -0.000000 -0.353624 -0.942558 0.665065 16.377300 -0.000001 -0.000001 3.004640 -2.762290 1.148720 6.456720 -0.000001 -0.000000 5.854010 -3.563970 -0.483125 12.994200 -0.242716 4.980390 -87.375400 -7.263320 -70.070400 5.348090 -0.000007 -0.000001 -88.869300 -39.057500 -78.629700 24.328600 0.000019 0.000005 -1.499020 -0.328420 -77.656200 22.291600 -0.000001 0.000005 47.924400 5.579730 -10.231600 12.994500 -0.242716 -4.980390 90.893500 -2.619170 -71.156000 -5.348130 -0.000001 -0.000004 -82.723200 -35.644900 -86.376400 -24.328900 0.000322 -0.000009 3.255530 1.409160 -66.626100 -22.291500 -0.000108 -0.000004 54.181000 5.209750 2.418650 -2.192480 -6.469440 -0.000000 -175.764000 -7.697900 -1.999350 39.081100 -0.000007 -0.000012 -0.096082 0.221870 23.415300 40.985400 -0.000006 -0.000013 0.134387 2.377940 -66.770900 11.754300 -0.000000 0.000003 -0.000036 -0.000426 -16.594200 -2.192510 6.469440 -0.000001 179.030000 15.007000 -178.743000 -39.081100 -0.002282 -0.040193 -0.007509 0.030589 19.498400 -40.985400 0.000008 0.000006 3.975420 6.911050 -66.324100 -11.754300 -0.000006 -0.000006 -0.005401 -0.065297 -19.230200
0.000000 0.000000 0.000000 0.000000 0.000000 -0.000000 0.017598 92.245900 -0.966176 87.888200 -1.841240 4.855420 15.735700 0.000005 -0.000001 82.872700 86.267900 -82.517900 8.984550 -0.406207 -0.000000 -0.356350 -0.951064 0.706230 16.377300 -0.000001 -0.000001 3.155890 -2.653920 1.003460 6.456720 -0.000001 -0.000000 5.908170 -3.434430 -0.710719 12.994200 -0.242716 4.980390 -87.299400 -7.465910 -70.047900 5.348090 -0.000007 -0.000001 -96.289200 -39.125700 -82.485800 24.328600 0.000019 0.000005 -2.873150 -0.667316 -76.935000 22.291600 -0.000001 0.000005 50.202100 5.556510 -9.002310 12.994500 -0.242716 -4.980390 90.928600 -2.733090 -71.225600 -5.348130 -0.000001 -0.000004 -88.326900 -35.040100 -88.865200 -24.328900 0.000322 -0.000009 0.783898 0.334889 -66.903800 -22.291500 -0.000108 -0.000004 57.528100 5.099690 5.115920 -2.192480 -6.469440 -0.000000 -175.764000 -7.686980 -1.941280 39.081100 -0.000007 -0.000012 -0.095606 0.220417 23.449000 40.985400 -0.000006 -0.000013 0.112781 2.268140 -66.802400 11.754300 -0.000000 0.000003 -0.000039 -0.000456 -16.595300 -2.192510 6.469440 -0.000001 179.031000 14.931000 -178.699000 -39.081100 -0.002282 -0.040193 -0.006132 0.026626 19.548500 -40.985400 0.000008 0.000006 4.050290 6.897010 -66.373100 -11.754300 -0.000006 -0.000006 -0.005238 -0.063746 -19.166900
0.000000 0.000000 0.000000 0.000000 0.000000 -0.000000 0.018689 92.224900 -0.912768 87.914300 -1.866030 5.027390 15.735700 0.000005 -0.000001 82.861700 86.247600 -82.479500 8.984550 -0.406207 -0.000000 -0.316094 -0.959305 0.761412 16.377300 -0.000001 -0.000001 3.375900 -2.590480 0.934974 6.456720 -0.000001 -0.000000 6.033880 -3.349570 -0.918084 12.994200 -0.242716 4.980390 -87.288100 -7.502670 -70.061200 5.348090 -0.000007 -0.000001 -98.153800 -38.711800 -83.292500 24.328600 0.000019 0.000005 -3.088380 -0.680759 -77.583900 22.291600 -0.000001 0.000005 52.719800 5.575760 -9.978170 12.994500 -0.242716 -4.980390 90.891000 -2.636030 -71.316500 -5.348130 -0.000001 -0.000004 -88.147500 -34.761700 -88.690300 -24.328900 0.000322 -0.000009 3.090440 1.212400 -68.589200 -22.291500 -0.000108 -0.000004 58.485900 5.129440 4.430050 -2.192480 -6.469440 -0.000000 -175.752000 -7.726060 -1.761420 39.081100 -0.000007 -0.000012 -0.097704 0.224361 23.532000 40.985400 -0.000006 -0.000013 0.119628 2.306060 -66.890100 11.754300 -0.000000 0.000003 -0.000036 -0.000420 -16.593900 -2.192510 6.469440 -0.000001 178.941000 14.882600 -178.550000 -39.081100 -0.002282 -0.040193 -0.008694 0.033597 19.679600 -40.985400 0.000008 0.000006 3.956600 6.892390 -66.458700 -11.754300 -0.000006 -0.000006 -0.005229 -0.063661 -19.163500
0.000000 0.000000 0.000000 0.000000 0.000000 -0.000000 0.024952 92.196100 -0.841604 87.908500 -1.803220 5.256460 15.735700 0.000005 -0.000001 82.749200 86.218200 -82.338600 8.984550 -0.406207 -0.000000 -0.259171 -0.983151 0.818417 16.377300 -0.000001 -0.000001 3.553570 -2.618840 0.935557 6.456720 -0.000001 -0.000000 6.252060 -3.343820 -1.015720 12.994200 -0.242716 4.980390 -87.350800 -7.342810 -70.098100 5.348090 -0.000007 -0.000001 -93.758200 -38.238000 -80.925300 24.328600 0.000019 0.000005 -1.328240 -0.250555 -79.341800 22.291600 -0.000001 0.000005 52.966200 5.591710 -10.868600 12.994500 -0.242716 -4.980390 90.797300 -2.352590 -71.270700 -5.348130 -0.000001 -0.000004 -82.184600 -34.617000 -86.142300 -24.328900 0.000322 -0.000009 7.214690 2.445270 -71.368800 -22.291500 -0.000108 -0.000004 58.077500 5.184380 3.100520 -2.192480 -6.469440 -0.000000 -175.709000 -7.743310 -1.561860 39.081100 -0.000007 -0.000012 -0.097287 0.221725 23.690700 40.985400 -0.000006 -0.000013 0.148471 2.397840 -67.020700 11.754300 -0.000000 0.000003 -0.000043 -0.000501 -16.597000 -2.192510 6.469440 -0.000001 178.852000 14.889400 -178.304000 -39.081100 -0.002282 -0.040193 -0.012479 0.043899 19.795700 -40.985400 0.000008 0.000006 3.797190 6.867030 -66.554500 -11.754300 -0.000006 -0.000006 -0.005055 -0.062000 -19.095800
